<svg xmlns="http://www.w3.org/2000/svg" width="48" height="48" viewBox="0 0 48 48" fill="none">
<rect y="39.1719" width="8.82756" height="8.82756" fill="#CFD6E6"/>
<rect x="39.1719" width="8.82756" height="8.82756" fill="#CFD6E6"/>
<rect width="8.82756" height="8.82756" fill="#CFD6E6"/>
<rect x="39.1719" y="39.1719" width="8.82756" height="8.82756" fill="#CFD6E6"/>
<path d="M24.447 36.2046C22.6893 36.2046 21.0281 35.867 19.4634 35.1918C17.8986 34.5166 16.5321 33.5949 15.3639 32.4267C14.1957 31.2584 13.274 29.8919 12.5987 28.3272C11.9235 26.7624 11.5859 25.1012 11.5859 23.3435C11.5859 21.5644 11.9235 19.8925 12.5987 18.3277C13.274 16.7629 14.1957 15.4018 15.3639 14.2443C16.5321 13.0868 17.8986 12.1704 19.4634 11.4952C21.0281 10.82 22.6893 10.4824 24.447 10.4824C26.2261 10.4824 27.8981 10.82 29.4628 11.4952C31.0276 12.1704 32.3887 13.0868 33.5462 14.2443C34.7037 15.4018 35.6201 16.7629 36.2953 18.3277C36.9705 19.8925 37.3081 21.5644 37.3081 23.3435C37.3081 25.1012 36.9705 26.7624 36.2953 28.3272C35.6201 29.8919 34.7037 31.2584 33.5462 32.4267C32.3887 33.5949 31.0276 34.5166 29.4628 35.1918C27.8981 35.867 26.2261 36.2046 24.447 36.2046ZM24.447 34.2754C27.4908 34.2754 30.0737 33.209 32.1958 31.0762C34.3179 28.9434 35.3789 26.3659 35.3789 23.3435C35.3789 20.2997 34.3179 17.7168 32.1958 15.5947C30.0737 13.4726 27.4908 12.4116 24.447 12.4116C21.4247 12.4116 18.8471 13.4726 16.7143 15.5947C14.5815 17.7168 13.5151 20.2997 13.5151 23.3435C13.5151 26.3659 14.5815 28.9434 16.7143 31.0762C18.8471 33.209 21.4247 34.2754 24.447 34.2754Z" fill="#101857"/>
<circle cx="24.4461" cy="23.3445" r="11.575" fill="#E38601"/>
<rect x="22.6992" y="27.5859" width="2.20689" height="3.31034" fill="white"/>
<rect x="22.6992" y="16" width="2.20689" height="3.31034" fill="white"/>
<path d="M26.8977 23.2837C27.5708 23.4272 28.1115 23.7637 28.5198 24.2934C28.9281 24.812 29.1322 25.4079 29.1322 26.081C29.1322 27.052 28.7902 27.8244 28.106 28.3982C27.4329 28.9609 26.4895 29.2423 25.2757 29.2423H19.8633V17.623H25.0936C26.2743 17.623 27.1957 17.8934 27.8577 18.4341C28.5308 18.9748 28.8674 19.7086 28.8674 20.6355C28.8674 21.3196 28.6853 21.8879 28.3212 22.3403C27.9681 22.7927 27.4936 23.1072 26.8977 23.2837ZM22.6936 22.3237H24.5474C25.0109 22.3237 25.364 22.2244 25.6067 22.0258C25.8605 21.8161 25.9874 21.5127 25.9874 21.1155C25.9874 20.7182 25.8605 20.4148 25.6067 20.2051C25.364 19.9955 25.0109 19.8906 24.5474 19.8906H22.6936V22.3237ZM24.7791 26.9582C25.2536 26.9582 25.6177 26.8534 25.8715 26.6437C26.1364 26.423 26.2688 26.1085 26.2688 25.7003C26.2688 25.292 26.1308 24.972 25.855 24.7403C25.5902 24.5085 25.2205 24.3927 24.746 24.3927H22.6936V26.9582H24.7791Z" fill="white"/>
<path d="M9.37891 4.41406L39.1719 4.41407" stroke="#CFD6E6" stroke-width="0.69565" stroke-linecap="round" stroke-dasharray="1.39 1.39"/>
<path d="M43.5859 7.17188L43.5859 40.8269" stroke="#CFD6E6" stroke-width="0.69565" stroke-linecap="round" stroke-dasharray="1.39 1.39"/>
<path d="M9.37891 43.5859L39.1719 43.5859" stroke="#CFD6E6" stroke-width="0.69565" stroke-linecap="round" stroke-dasharray="1.39 1.39"/>
<path d="M4.41406 7.17188L4.41406 41.3787" stroke="#CFD6E6" stroke-width="0.69565" stroke-linecap="round" stroke-dasharray="1.39 1.39"/>
</svg>