<svg width="186" height="43" viewBox="0 0 186 43" fill="none" xmlns="http://www.w3.org/2000/svg">
<path d="M64.2849 3.08058C64.5383 2.37791 65.532 2.37791 65.7854 3.08058L67.7434 8.51032C67.8543 8.81779 68.1415 9.02649 68.4682 9.03692L74.2372 9.22119C74.9838 9.24503 75.2909 10.1902 74.7009 10.6483L70.142 14.1883C69.8838 14.3888 69.7741 14.7264 69.8651 15.0404L71.4726 20.584C71.6806 21.3014 70.8767 21.8855 70.2587 21.466L65.4831 18.2241C65.2127 18.0405 64.8576 18.0405 64.5872 18.2241L59.8116 21.466C59.1936 21.8855 58.3897 21.3014 58.5977 20.584L60.2052 15.0404C60.2962 14.7264 60.1865 14.3888 59.9283 14.1883L55.3694 10.6483C54.7794 10.1902 55.0865 9.24503 55.8331 9.22119L61.6021 9.03692C61.9288 9.02649 62.216 8.81779 62.3269 8.51032L64.2849 3.08058Z" fill="#F8A82F"/>
<path d="M91.2849 3.08058C91.5383 2.37791 92.532 2.37791 92.7854 3.08058L94.7434 8.51032C94.8543 8.81779 95.1415 9.02649 95.4682 9.03692L101.237 9.22119C101.984 9.24503 102.291 10.1902 101.701 10.6483L97.142 14.1883C96.8838 14.3888 96.7741 14.7264 96.8651 15.0404L98.4726 20.584C98.6806 21.3014 97.8767 21.8855 97.2587 21.466L92.4831 18.2241C92.2127 18.0405 91.8576 18.0405 91.5872 18.2241L86.8116 21.466C86.1936 21.8855 85.3897 21.3014 85.5977 20.584L87.2052 15.0404C87.2962 14.7264 87.1865 14.3888 86.9283 14.1883L82.3694 10.6483C81.7794 10.1902 82.0865 9.24503 82.8331 9.22119L88.6021 9.03692C88.9288 9.02649 89.216 8.81779 89.3269 8.51032L91.2849 3.08058Z" fill="#F8A82F"/>
<path d="M118.288 3.00801C118.545 2.31557 119.525 2.31557 119.783 3.00801L121.74 8.26666C121.853 8.57045 122.139 8.77558 122.463 8.7856L128.179 8.96248C128.932 8.98579 129.236 9.94408 128.634 10.397L124.158 13.7639C123.891 13.9646 123.778 14.3102 123.874 14.63L125.46 19.9309C125.674 20.6442 124.88 21.2351 124.258 20.826L119.473 17.6794C119.207 17.5045 118.863 17.5045 118.597 17.6794L113.812 20.826C113.19 21.2351 112.396 20.6442 112.61 19.9309L114.197 14.63C114.292 14.3102 114.179 13.9646 113.912 13.7639L109.436 10.397C108.834 9.94408 109.138 8.98579 109.891 8.96248L115.607 8.7856C115.931 8.77558 116.217 8.57045 116.33 8.26666L118.288 3.00801Z" fill="#F8A82F"/>
<path d="M145.285 3.08058C145.538 2.37791 146.532 2.37791 146.785 3.08058L148.743 8.51032C148.854 8.81779 149.142 9.02649 149.468 9.03692L155.237 9.22119C155.984 9.24503 156.291 10.1902 155.701 10.6483L151.142 14.1883C150.884 14.3888 150.774 14.7264 150.865 15.0404L152.473 20.584C152.681 21.3014 151.877 21.8855 151.259 21.466L146.483 18.2241C146.213 18.0405 145.858 18.0405 145.587 18.2241L140.812 21.466C140.194 21.8855 139.39 21.3014 139.598 20.584L141.205 15.0404C141.296 14.7264 141.186 14.3888 140.928 14.1883L136.369 10.6483C135.779 10.1902 136.086 9.24503 136.833 9.22119L142.602 9.03692C142.929 9.02649 143.216 8.81779 143.327 8.51032L145.285 3.08058Z" fill="#F8A82F"/>
<path d="M172.285 3.08058C172.538 2.37791 173.532 2.37791 173.785 3.08058L175.743 8.51032C175.854 8.81779 176.142 9.02649 176.468 9.03692L182.237 9.22119C182.984 9.24503 183.291 10.1902 182.701 10.6483L178.142 14.1883C177.884 14.3888 177.774 14.7264 177.865 15.0404L179.473 20.584C179.681 21.3014 178.877 21.8855 178.259 21.466L173.483 18.2241C173.213 18.0405 172.858 18.0405 172.587 18.2241L167.812 21.466C167.194 21.8855 166.39 21.3014 166.598 20.584L168.205 15.0404C168.296 14.7264 168.186 14.3888 167.928 14.1883L163.369 10.6483C162.779 10.1902 163.086 9.24503 163.833 9.22119L169.602 9.03692C169.929 9.02649 170.216 8.81779 170.327 8.51032L172.285 3.08058Z" fill="#F8A82F"/>
<path fill-rule="evenodd" clip-rule="evenodd" d="M39.0476 0H10.5295C0.219992 2.584 0 11.584 0 11.584V42H10.9695V14.308C10.9695 11.954 13.1619 11.538 13.1619 11.538H39.0476V0ZM17.3734 16.0074C17.3734 16.0074 15.2381 15.7859 15.2381 17.7695V26.5801H29.3271V29.2242C29.3271 29.2242 29.3692 30.5453 28.0463 30.5453H15.2381V42H30.6079C30.6079 42 39.9158 40.5033 40 30.5453V16.0074H17.3734Z" fill="#4385F4"/>
<path d="M61.0784 34.2959H58.8676V40H57.7191V34.2959H55.5178V33.2144H61.0784V34.2959ZM63.241 34.8031C62.7944 35.2306 62.571 35.8304 62.571 36.6024C62.571 37.3745 62.7944 37.9774 63.241 38.4113C63.6876 38.8388 64.2204 39.0525 64.8393 39.0525C65.4582 39.0525 65.9909 38.8388 66.4376 38.4113C66.8906 37.9774 67.1171 37.3745 67.1171 36.6024C67.1171 35.8304 66.8906 35.2306 66.4376 34.8031C65.9909 34.3693 65.4582 34.1523 64.8393 34.1523C64.2204 34.1523 63.6876 34.3693 63.241 34.8031ZM61.882 38.4974C61.5565 37.9487 61.3938 37.317 61.3938 36.6024C61.3938 35.8878 61.5565 35.2593 61.882 34.717C62.2137 34.1683 62.638 33.7567 63.1548 33.4824C63.6717 33.208 64.2331 33.0709 64.8393 33.0709C65.4454 33.0709 66.0069 33.208 66.5237 33.4824C67.0405 33.7567 67.4648 34.1683 67.7966 34.717C68.1284 35.2593 68.2943 35.8878 68.2943 36.6024C68.2943 37.317 68.1284 37.9487 67.7966 38.4974C67.4648 39.0461 67.0405 39.4577 66.5237 39.732C66.0069 40.0064 65.4454 40.1436 64.8393 40.1436C64.2331 40.1436 63.6717 40.0064 63.1548 39.732C62.638 39.4577 62.2137 39.0461 61.882 38.4974ZM70.6552 36.3344H71.8516C72.2153 36.3344 72.4992 36.2419 72.7034 36.0569C72.9139 35.8655 73.0192 35.6103 73.0192 35.2912C73.0192 34.9658 72.9139 34.7074 72.7034 34.516C72.4992 34.3246 72.2153 34.2289 71.8516 34.2289H70.6552V36.3344ZM72.0238 37.3489H70.6552V40H69.5068V33.2144H72.0238C72.6683 33.2144 73.1883 33.409 73.5839 33.7982C73.9858 34.1874 74.1868 34.6819 74.1868 35.2817C74.1868 35.8878 73.9858 36.3855 73.5839 36.7747C73.1883 37.1575 72.6683 37.3489 72.0238 37.3489ZM81.0644 40L79.6383 37.3202H78.7961V40H77.6381V33.2144H80.2413C80.8793 33.2144 81.393 33.4122 81.7822 33.8078C82.1714 34.197 82.366 34.6851 82.366 35.2721C82.366 35.757 82.2288 36.1717 81.9544 36.5163C81.6801 36.8608 81.3068 37.0905 80.8347 37.2054L82.366 40H81.0644ZM78.7961 36.3057H80.0307C80.3817 36.3057 80.6624 36.2132 80.873 36.0282C81.0899 35.8368 81.1984 35.5847 81.1984 35.2721C81.1984 34.9531 81.0899 34.7011 80.873 34.516C80.6624 34.3246 80.3817 34.2289 80.0307 34.2289H78.7961V36.3057ZM88.2054 40L87.5642 38.2964H84.693L84.0613 40H82.8459L85.4874 33.2144H86.8177L89.4592 40H88.2054ZM86.1286 34.4586L85.095 37.2341H87.1622L86.1286 34.4586ZM94.613 34.2959H92.4022V40H91.2537V34.2959H89.0525V33.2144H94.613V34.2959ZM99.7469 40H95.555V33.2144H99.7469V34.2863H96.7035V36.0856H99.4598V37.1288H96.7035V38.9281H99.7469V40ZM102.274 38.9472H103.48C104.105 38.9472 104.619 38.7494 105.021 38.3538C105.429 37.9519 105.633 37.3745 105.633 36.6216C105.633 35.8623 105.432 35.2817 105.03 34.8797C104.628 34.4714 104.115 34.2672 103.489 34.2672H102.274V38.9472ZM103.518 40H101.125V33.2144H103.528C104.485 33.2144 105.273 33.5175 105.892 34.1236C106.517 34.7298 106.83 35.5624 106.83 36.6216C106.83 37.6743 106.517 38.5006 105.892 39.1004C105.266 39.7001 104.475 40 103.518 40ZM111.842 34.8031C111.395 35.2306 111.172 35.8304 111.172 36.6024C111.172 37.3745 111.395 37.9774 111.842 38.4113C112.289 38.8388 112.821 39.0525 113.44 39.0525C114.059 39.0525 114.592 38.8388 115.039 38.4113C115.492 37.9774 115.718 37.3745 115.718 36.6024C115.718 35.8304 115.492 35.2306 115.039 34.8031C114.592 34.3693 114.059 34.1523 113.44 34.1523C112.821 34.1523 112.289 34.3693 111.842 34.8031ZM110.483 38.4974C110.157 37.9487 109.995 37.317 109.995 36.6024C109.995 35.8878 110.157 35.2593 110.483 34.717C110.815 34.1683 111.239 33.7567 111.756 33.4824C112.273 33.208 112.834 33.0709 113.44 33.0709C114.046 33.0709 114.608 33.208 115.125 33.4824C115.641 33.7567 116.066 34.1683 116.398 34.717C116.729 35.2593 116.895 35.8878 116.895 36.6024C116.895 37.317 116.729 37.9487 116.398 38.4974C116.066 39.0461 115.641 39.4577 115.125 39.732C114.608 40.0064 114.046 40.1436 113.44 40.1436C112.834 40.1436 112.273 40.0064 111.756 39.732C111.239 39.4577 110.815 39.0461 110.483 38.4974ZM123.802 40H122.606L119.256 34.8606V40H118.108V33.2144H119.572L122.654 38.0284V33.2144H123.802V40ZM133.82 40H132.891L132.805 39.1386C132.639 39.4194 132.378 39.6586 132.021 39.8564C131.663 40.0479 131.233 40.1436 130.728 40.1436C129.803 40.1436 129.015 39.8245 128.365 39.1865C127.714 38.5421 127.388 37.6807 127.388 36.6024C127.388 35.8878 127.551 35.2561 127.876 34.7074C128.208 34.1587 128.629 33.7504 129.14 33.4824C129.65 33.208 130.205 33.0709 130.805 33.0709C131.59 33.0709 132.247 33.2655 132.777 33.6547C133.313 34.0439 133.676 34.5383 133.868 35.1381L132.786 35.5496C132.665 35.1413 132.432 34.8031 132.088 34.5352C131.743 34.2672 131.315 34.1332 130.805 34.1332C130.199 34.1332 129.673 34.3469 129.226 34.7744C128.779 35.2019 128.556 35.8112 128.556 36.6024C128.556 37.3872 128.773 37.9997 129.207 38.44C129.641 38.8739 130.17 39.0908 130.795 39.0908C131.408 39.0908 131.874 38.9313 132.193 38.6123C132.518 38.2869 132.7 37.9391 132.738 37.5691H130.499V36.5641H133.82V40ZM136.647 34.8031C136.2 35.2306 135.977 35.8304 135.977 36.6024C135.977 37.3745 136.2 37.9774 136.647 38.4113C137.094 38.8388 137.627 39.0525 138.245 39.0525C138.864 39.0525 139.397 38.8388 139.844 38.4113C140.297 37.9774 140.523 37.3745 140.523 36.6024C140.523 35.8304 140.297 35.2306 139.844 34.8031C139.397 34.3693 138.864 34.1523 138.245 34.1523C137.627 34.1523 137.094 34.3693 136.647 34.8031ZM135.288 38.4974C134.963 37.9487 134.8 37.317 134.8 36.6024C134.8 35.8878 134.963 35.2593 135.288 34.717C135.62 34.1683 136.044 33.7567 136.561 33.4824C137.078 33.208 137.639 33.0709 138.245 33.0709C138.852 33.0709 139.413 33.208 139.93 33.4824C140.447 33.7567 140.871 34.1683 141.203 34.717C141.535 35.2593 141.7 35.8878 141.7 36.6024C141.7 37.317 141.535 37.9487 141.203 38.4974C140.871 39.0461 140.447 39.4577 139.93 39.732C139.413 40.0064 138.852 40.1436 138.245 40.1436C137.639 40.1436 137.078 40.0064 136.561 39.732C136.044 39.4577 135.62 39.0461 135.288 38.4974ZM144.348 34.8031C143.902 35.2306 143.679 35.8304 143.679 36.6024C143.679 37.3745 143.902 37.9774 144.348 38.4113C144.795 38.8388 145.328 39.0525 145.947 39.0525C146.566 39.0525 147.098 38.8388 147.545 38.4113C147.998 37.9774 148.225 37.3745 148.225 36.6024C148.225 35.8304 147.998 35.2306 147.545 34.8031C147.098 34.3693 146.566 34.1523 145.947 34.1523C145.328 34.1523 144.795 34.3693 144.348 34.8031ZM142.989 38.4974C142.664 37.9487 142.501 37.317 142.501 36.6024C142.501 35.8878 142.664 35.2593 142.989 34.717C143.321 34.1683 143.746 33.7567 144.262 33.4824C144.779 33.208 145.341 33.0709 145.947 33.0709C146.553 33.0709 147.114 33.208 147.631 33.4824C148.148 33.7567 148.572 34.1683 148.904 34.717C149.236 35.2593 149.402 35.8878 149.402 36.6024C149.402 37.317 149.236 37.9487 148.904 38.4974C148.572 39.0461 148.148 39.4577 147.631 39.732C147.114 40.0064 146.553 40.1436 145.947 40.1436C145.341 40.1436 144.779 40.0064 144.262 39.732C143.746 39.4577 143.321 39.0461 142.989 38.4974ZM151.763 38.9472H152.969C153.594 38.9472 154.108 38.7494 154.51 38.3538C154.918 37.9519 155.122 37.3745 155.122 36.6216C155.122 35.8623 154.921 35.2817 154.519 34.8797C154.117 34.4714 153.604 34.2672 152.978 34.2672H151.763V38.9472ZM153.007 40H150.614V33.2144H153.017C153.974 33.2144 154.762 33.5175 155.38 34.1236C156.006 34.7298 156.318 35.5624 156.318 36.6216C156.318 37.6743 156.006 38.5006 155.38 39.1004C154.755 39.7001 153.964 40 153.007 40ZM158.67 40H157.521V33.2144H161.742V34.2959H158.67V36.2005H161.426V37.2628H158.67V40ZM164.016 40H162.849V33.2144H164.016V40ZM169.069 40L167.643 37.3202H166.801V40H165.643V33.2144H168.246C168.884 33.2144 169.398 33.4122 169.787 33.8078C170.176 34.197 170.371 34.6851 170.371 35.2721C170.371 35.757 170.234 36.1717 169.96 36.5163C169.685 36.8608 169.312 37.0905 168.84 37.2054L170.371 40H169.069ZM166.801 36.3057H168.036C168.387 36.3057 168.668 36.2132 168.878 36.0282C169.095 35.8368 169.203 35.5847 169.203 35.2721C169.203 34.9531 169.095 34.7011 168.878 34.516C168.668 34.3246 168.387 34.2289 168.036 34.2289H166.801V36.3057ZM179.062 40H177.923V35.0041L175.808 40H174.813L172.717 35.0233V40H171.597V33.2144H173.128L175.329 38.3921L177.502 33.2144H179.062V40ZM185.151 34.8031L184.117 35.1285C184.072 34.8669 183.942 34.6277 183.725 34.4107C183.508 34.1938 183.195 34.0853 182.787 34.0853C182.449 34.0853 182.168 34.181 181.945 34.3725C181.728 34.5639 181.619 34.7936 181.619 35.0615C181.619 35.5273 181.884 35.8176 182.413 35.9325L183.39 36.1335C183.977 36.2483 184.43 36.4812 184.749 36.8321C185.068 37.183 185.227 37.601 185.227 38.0859C185.227 38.6473 185.01 39.1323 184.576 39.5406C184.149 39.9426 183.565 40.1436 182.825 40.1436C182.027 40.1436 181.405 39.9362 180.959 39.5215C180.512 39.1004 180.26 38.6123 180.203 38.0572L181.275 37.7509C181.313 38.1337 181.466 38.4559 181.734 38.7175C182.002 38.9791 182.366 39.1099 182.825 39.1099C183.221 39.1099 183.524 39.0238 183.734 38.8515C183.951 38.6729 184.06 38.4464 184.06 38.172C184.06 37.9487 183.98 37.7573 183.82 37.5978C183.661 37.4319 183.438 37.317 183.15 37.2532L182.193 37.0522C181.664 36.9438 181.243 36.7236 180.93 36.3919C180.624 36.0601 180.471 35.6454 180.471 35.1477C180.471 34.5798 180.697 34.0917 181.15 33.6834C181.603 33.275 182.146 33.0709 182.777 33.0709C183.498 33.0709 184.05 33.2463 184.433 33.5972C184.816 33.9418 185.055 34.3437 185.151 34.8031Z" fill="#4385F4"/>
</svg>
