<svg xmlns="http://www.w3.org/2000/svg" xmlns:xlink="http://www.w3.org/1999/xlink" id="Layer_1" data-name="Layer 1" viewBox="0 0 48 48"><defs><style>.cls-1{fill:none;}.cls-2{clip-path:url(#clip-path);}.cls-3{fill:#E38601;}.cls-4{fill:#e7ecf8;}.cls-5{fill:#fff;}</style><clipPath id="clip-path"><rect class="cls-1" width="48" height="48"/></clipPath></defs><g class="cls-2"><path class="cls-3" d="M27.3,24.47a11.72,11.72,0,0,1-4.74-1A12.32,12.32,0,0,1,16,17a11.82,11.82,0,0,1-1-4.74,12,12,0,0,1,1-4.77,12.16,12.16,0,0,1,2.63-3.88A12.68,12.68,0,0,1,22.56,1a12.26,12.26,0,0,1,9.51,0,12.3,12.3,0,0,1,6.5,6.5,12,12,0,0,1,1,4.77,11.81,11.81,0,0,1-1,4.74A12.68,12.68,0,0,1,36,20.87a12.16,12.16,0,0,1-3.88,2.63A11.79,11.79,0,0,1,27.3,24.47Zm0-1.84a10,10,0,0,0,7.37-3,10,10,0,0,0,3-7.36,10,10,0,0,0-3-7.37,10,10,0,0,0-7.37-3,10,10,0,0,0-7.36,3,10,10,0,0,0-3,7.37,10,10,0,0,0,3,7.36A10,10,0,0,0,27.3,22.63Z"/><circle class="cls-3" cx="27.3" cy="12.23" r="11.01"/><path class="cls-4" d="M15.92,30a6.33,6.33,0,0,1,5.13-.66c1.36.39,2.73.74,4.09,1.12a1.79,1.79,0,0,1,1,2.8,1.75,1.75,0,0,1-1.89.62l-2.14-.59-3.26-.89a.7.7,0,0,0-.86.5h0a.66.66,0,0,0,.48.82l2.06.52c2.81.77,3.09.9,5.9,1.68a4.89,4.89,0,0,0,3.9-.5C34.57,33,34,33,38.21,30.56A1.4,1.4,0,1,1,39.65,33c-2.49,1.45-4.34,2.86-6.84,4.3-2.81,1.62-1.42.81-4.21,2.44a6.33,6.33,0,0,1-5.11.65c-1.77-.5-3.55-1-5.33-1.46a3.5,3.5,0,0,0-2.79.36l-4.1,2.37-.21.12v0l-.06,0,0,0a1.27,1.27,0,0,1-1.73-.46L6.64,36.87a1.27,1.27,0,0,1,.46-1.73l.41-.23a1.11,1.11,0,0,0,.27-.17Q11.86,32.4,15.92,30Z"/></g><path class="cls-5" d="M26.49,6.28V18.65a.9.9,0,0,0,.25.6.89.89,0,0,0,.6.24.87.87,0,0,0,.59-.24.9.9,0,0,0,.25-.6V6.28a.9.9,0,0,0-.25-.6.85.85,0,0,0-.59-.24.87.87,0,0,0-.6.24.9.9,0,0,0-.25.6Z"/><path class="cls-5" d="M23.26,14.94A3.29,3.29,0,0,0,25,17.43a4.6,4.6,0,0,0,2.09.47l.63,0a6.9,6.9,0,0,0,1-.13,4.9,4.9,0,0,0,.84-.29,2.34,2.34,0,0,0,.49-.27,3.23,3.23,0,0,0,.52-.45,2.94,2.94,0,0,0,.6-1.06,1.67,1.67,0,0,0,.08-.32,4.26,4.26,0,0,0,.06-.5,3.41,3.41,0,0,0-.05-.55h0l0,.22a2.58,2.58,0,0,0-.19-.83,1.91,1.91,0,0,0-.16-.32,3.52,3.52,0,0,0-.27-.37,2.93,2.93,0,0,0-.53-.47,2.6,2.6,0,0,0-.45-.28,6.16,6.16,0,0,0-1.91-.6l-.87-.1.22,0a5.63,5.63,0,0,1-1.34-.35l.2.08a3,3,0,0,1-.7-.4l.17.13a2.19,2.19,0,0,1-.43-.43l.13.17a2.13,2.13,0,0,1-.27-.46l.08.2A2.09,2.09,0,0,1,24.9,10c0,.07,0,.15,0,.22a2.81,2.81,0,0,1,0-.58,1.79,1.79,0,0,0,0,.23,1.86,1.86,0,0,1,.15-.56l-.09.2a2.22,2.22,0,0,1,.25-.42l-.13.17a2.16,2.16,0,0,1,.37-.37l-.17.13a2.73,2.73,0,0,1,.6-.34l-.2.08a4.37,4.37,0,0,1,1.06-.28l-.23,0a5.49,5.49,0,0,1,.81,0,4.73,4.73,0,0,1,.65,0l-.23,0a3.36,3.36,0,0,1,.88.23l-.2-.09a3.46,3.46,0,0,1,.62.36l-.17-.13a2.73,2.73,0,0,1,.48.48l-.14-.17a2.77,2.77,0,0,1,.38.64l-.09-.2a2.34,2.34,0,0,1,.19.62l0-.22h0a.6.6,0,0,0,.07.32.65.65,0,0,0,.17.27.86.86,0,0,0,.6.25.82.82,0,0,0,.59-.25.79.79,0,0,0,.25-.59,3,3,0,0,0-.2-.83,3.56,3.56,0,0,0-.39-.75,3.26,3.26,0,0,0-.65-.74,6.15,6.15,0,0,0-.52-.37A5,5,0,0,0,29,7.07a4.48,4.48,0,0,0-1.36-.25A6.22,6.22,0,0,0,25.89,7a4.67,4.67,0,0,0-.91.32,3.39,3.39,0,0,0-.84.55,3.67,3.67,0,0,0-.4.47,2.22,2.22,0,0,0-.21.37,2.36,2.36,0,0,0-.22.63,3.65,3.65,0,0,0-.08.74v.13a3,3,0,0,0,.38,1.24A3.38,3.38,0,0,0,25,12.69a5.24,5.24,0,0,0,1.28.44c.35.07.71.11,1.07.15h.16l-.23,0a7.39,7.39,0,0,1,1.13.26l.39.14-.2-.08a3,3,0,0,1,.73.42l-.17-.14a1.71,1.71,0,0,1,.38.38l-.13-.17a1.72,1.72,0,0,1,.22.37l-.08-.2a1.72,1.72,0,0,1,.1.39l0-.22c0,.12,0,.24.05.36l0-.23a2,2,0,0,1,0,.54l0-.22a2.15,2.15,0,0,1-.14.54,1.19,1.19,0,0,1,.08-.2,2.3,2.3,0,0,1-.25.43l.13-.17a2.45,2.45,0,0,1-.36.36l.17-.13a2.39,2.39,0,0,1-.56.32l.2-.08a3.76,3.76,0,0,1-1,.25l.23,0c-.25,0-.49,0-.74.05H26.9c-.12,0-.24,0-.36,0l.22,0a3.37,3.37,0,0,1-.93-.25l.2.09a2.81,2.81,0,0,1-.6-.36l.17.14a2.38,2.38,0,0,1-.42-.42l.13.17A2.43,2.43,0,0,1,25,15c0,.07.05.14.08.2a3.25,3.25,0,0,1-.2-.74.73.73,0,0,0-.15-.29.64.64,0,0,0-.24-.22.86.86,0,0,0-.65-.08.83.83,0,0,0-.5.38,1.8,1.8,0,0,0-.08.21.82.82,0,0,0,0,.44Z"/></svg>