<svg xmlns="http://www.w3.org/2000/svg" width="960" height="762" viewBox="0 0 960 762">
  <g id="Group_33212" data-name="Group 33212" transform="translate(0 -3940)">
    <rect id="Rectangle_4811" data-name="Rectangle 4811" width="960" height="762" transform="translate(0 3940)" fill="#ef861d"/>
    <path id="Path_27620" data-name="Path 27620" d="M29.835-248.625q0-114.036,44.089-179.673t142.214-65.637q98.124,0,142.214,65.637t44.09,179.673q0,115.362-44.09,181T216.138-1.989q-98.124,0-142.214-65.637T29.835-248.625Zm261.222,0q0-66.963-14.586-103.1t-60.333-36.133q-45.747,0-60.333,36.133t-14.586,103.1q0,45.084,5.3,74.588T168.071-126.3q16.243,18.233,48.067,18.233T264.206-126.3q16.243-18.232,21.548-47.736T291.057-248.625ZM464.763-86.19v-91.494L674.271-477.36H800.9v293.046H855.27V-86.19H800.9V0H687.531V-86.19ZM695.487-352.716,584.1-184.314H695.487Z" transform="translate(37.165 4567.935)" fill="#fff" opacity="0.14"/>
  </g>
</svg>
