<?xml version="1.0" encoding="utf-8"?>
<!-- Generator: Adobe Illustrator 22.1.0, SVG Export Plug-In . SVG Version: 6.00 Build 0)  -->
<svg version="1.1" id="Layer_1" xmlns="http://www.w3.org/2000/svg" xmlns:xlink="http://www.w3.org/1999/xlink" x="0px" y="0px"
	 viewBox="0 0 263.3 53" style="enable-background:new 0 0 263.3 53;" xml:space="preserve">
<style type="text/css">
	.st0{fill:#F2B41C;}
	.st1{clip-path:url(#SVGID_2_);fill:#F2B41C;}
	.st2{fill:#FFFFFF;}
</style>
<g>
	<g>
		<path class="st0" d="M14.9,43.4c-0.4,0-0.6-0.1-1-0.1c-0.6-0.1-1.3-0.2-1.9-0.4c-0.9-0.2-1.7-0.6-2.6-1c-1-0.5-1.8-1-2.7-1.7
			c-1-0.9-1.9-1.7-2.7-2.8c-0.7-1.1-1.5-2.2-1.8-3.4c-0.2-0.7-0.5-1.5-0.7-2.2c-0.2-1.1-0.4-2.1-0.4-3.2c0-0.6,0-1.1,0.1-1.7
			c0.1-0.9,0.2-1.6,0.5-2.4c0.2-1.2,0.9-2.3,1.5-3.4C4,20,4.8,18.9,5.9,17.9c0.9-0.9,1.8-1.6,2.9-2.2s2.2-1.1,3.4-1.3
			c0,2.7,0,5.2,0,7.9c0.4-0.1,0.6-0.2,0.9-0.4c0.7-0.4,1.6-0.5,2.4-0.6c1,0,2.1,0.1,2.9,0.5c0.7,0.2,1.5,0.7,2.1,1.2
			c0.9,0.7,1.6,1.6,1.9,2.6c0.4,0.9,0.6,1.8,0.7,2.8c0,1-0.1,1.9-0.5,2.9c-0.5,1.2-1.2,2.2-2.2,3c-0.6,0.5-1.3,1-2.1,1.2
			C17.7,35.8,17,36,16.3,36c-1.1,0.1-2.1-0.1-3.2-0.5c-1.2-0.5-2.2-1.1-3-2.1c-0.5-0.6-1-1.3-1.3-2.2c-0.2-0.7-0.5-1.5-0.5-2.3
			c0-2.8,0-5.5,0-8.3c0-0.1,0-0.1,0-0.4c-1.5,1.3-2.6,2.9-3,4.6c-0.7,3.3-0.5,6.4,1.2,9.4c1.6,2.7,3.9,4.4,6.9,5.2
			c1.8,0.5,3.6,0.4,5.4-0.1s3.3-1.3,4.6-2.4c0.1-0.1,0.1-0.1,0.2-0.2s0.2-0.1,0.2-0.2c0.1-0.1,0.2-0.4,0.4-0.5
			c0.2-0.2,0.4-0.5,0.6-0.7c0.5-0.7,1-1.5,1.3-2.3c0.2-0.5,0.4-1.1,0.6-1.6c0.1-0.5,0.2-1.1,0.2-1.6c0-0.4,0.1-0.7,0.1-1.1
			c0-1-0.1-1.9-0.4-2.9c-0.4-1.2-0.9-2.4-1.7-3.5c-0.6-0.9-1.5-1.7-2.3-2.3c-0.7-0.6-1.5-1.1-2.3-1.5c-0.7-0.2-1.5-0.5-2.3-0.7
			c-0.7-0.1-1.5-0.2-2.1-0.2c0-1.2,0-2.4,0-3.6c2.2,0,4.1,0.5,6.1,1.3c1.9,0.9,3.5,2.1,5,3.6c0-0.1,0-0.2,0-0.2c0-1.8,0-3.8,0-5.6
			c0-1.1,0.6-1.9,1.3-2.6c0.4-0.4,0.9-0.6,1.5-0.7c0.2-0.1,0.6-0.1,0.9-0.1c0,6.7,0,13.4,0,20.1c0,0.4-0.1,0.6-0.1,1
			c-0.1,0.7-0.2,1.6-0.5,2.3c-0.2,0.9-0.6,1.6-1,2.4c-0.5,1-1.1,1.8-1.7,2.6c-0.7,0.9-1.5,1.6-2.3,2.3c-0.9,0.6-1.7,1.2-2.7,1.7
			c-0.9,0.4-1.7,0.7-2.6,1c-0.6,0.2-1.3,0.2-1.9,0.4c-0.4,0-0.6,0.1-1,0.1C16.4,43.4,15.6,43.4,14.9,43.4z M16,32.4
			c2.1,0.1,3.8-1.7,3.8-3.6c0-2.1-1.7-3.8-3.6-3.8c-2.1,0-3.8,1.7-3.8,3.6C12.2,30.7,13.9,32.4,16,32.4z"/>
		<g>
			<g>
				<defs>
					<ellipse id="SVGID_1_" cx="15" cy="27.7" rx="9.5" ry="10"/>
				</defs>
				<clipPath id="SVGID_2_">
					<use xlink:href="#SVGID_1_"  style="overflow:visible;"/>
				</clipPath>
				<path class="st1" d="M14.9,43.4c-0.4,0-0.6-0.1-1-0.1c-0.6-0.1-1.3-0.2-1.9-0.4c-0.9-0.2-1.7-0.6-2.6-1c-1-0.5-1.8-1-2.7-1.7
					c-1-0.9-1.9-1.7-2.7-2.8c-0.7-1.1-1.5-2.2-1.8-3.4c-0.2-0.7-0.5-1.5-0.7-2.2c-0.2-1.1-0.4-2.1-0.4-3.2c0-0.6,0-1.1,0.1-1.7
					c0.1-0.9,0.2-1.6,0.5-2.4c0.2-1.2,0.9-2.3,1.5-3.4C4,20,4.8,18.9,5.9,17.9c0.9-0.9,1.8-1.6,2.9-2.2s2.2-1.1,3.4-1.3
					c0,2.7,0,5.2,0,7.9c0.4-0.1,0.6-0.2,0.9-0.4c0.7-0.4,1.6-0.5,2.4-0.6c1,0,2.1,0.1,2.9,0.5c0.7,0.2,1.5,0.7,2.1,1.2
					c0.9,0.7,1.6,1.6,1.9,2.6c0.4,0.9,0.6,1.8,0.7,2.8c0,1-0.1,1.9-0.5,2.9c-0.5,1.2-1.2,2.2-2.2,3c-0.6,0.5-1.3,1-2.1,1.2
					C17.7,35.8,17,36,16.3,36c-1.1,0.1-2.1-0.1-3.2-0.5c-1.2-0.5-2.2-1.1-3-2.1c-0.5-0.6-1-1.3-1.3-2.2c-0.2-0.7-0.5-1.5-0.5-2.3
					c0-2.8,0-5.5,0-8.3c0-0.1,0-0.1,0-0.4c-1.5,1.3-2.6,2.9-3,4.6c-1.1,3.2-0.7,6.3,1,9.1c1.6,2.7,3.9,4.4,6.9,5.2
					c1.8,0.5,3.6,0.4,5.4-0.1c1.7-0.5,3.3-1.3,4.6-2.4c0.1-0.1,0.1-0.1,0.2-0.2s0.2-0.1,0.2-0.2c0.1-0.1,0.2-0.4,0.4-0.5
					c0.2-0.2,0.4-0.5,0.6-0.7c0.5-0.7,1-1.5,1.3-2.3c0.2-0.5,0.4-1.1,0.6-1.6c0.1-0.5,0.2-1.1,0.2-1.6c0-0.4,0.1-0.7,0.1-1.1
					c0-1-0.1-1.9-0.4-2.9c-0.4-1.2-0.9-2.4-1.7-3.5c-0.6-0.9-1.5-1.7-2.3-2.3c-0.5-0.5-1.2-0.9-2.1-1.2c-0.7-0.2-1.5-0.5-2.3-0.7
					c-0.7-0.1-1.5-0.2-2.1-0.2c0-1.2,0-2.4,0-3.6c2.2,0,4.1,0.5,6.1,1.3c1.9,0.9,3.5,2.1,5,3.6c0-0.1,0-0.2,0-0.2c0-1.8,0-3.8,0-5.6
					c0-1.1,0.6-1.9,1.3-2.6c0.4-0.4,0.9-0.6,1.5-0.7c0.2-0.1,0.6-0.1,0.9-0.1c0,6.7,0,13.4,0,20.1c0,0.4-0.1,0.6-0.1,1
					c-0.1,0.7-0.2,1.6-0.5,2.3c-0.2,0.9-0.6,1.6-1,2.4c-0.5,1-1.1,1.8-1.7,2.6c-0.7,0.9-1.5,1.6-2.3,2.3c-0.9,0.6-1.7,1.2-2.7,1.7
					c-0.9,0.4-1.7,0.7-2.6,1c-0.6,0.2-1.3,0.2-1.9,0.4c-0.4,0-0.6,0.1-1,0.1C16.4,43.4,15.6,43.4,14.9,43.4z M16,32.4
					c2.1,0.1,3.8-1.7,3.8-3.6c0-2.1-1.7-3.8-3.6-3.8c-2.1,0-3.8,1.7-3.8,3.6C12.2,30.7,13.9,32.4,16,32.4z"/>
			</g>
		</g>
	</g>
	<g>
		<g>
			<path class="st2" d="M45.5,26.9c0,2.1-0.5,3.8-1.3,4.9c-0.9,1.2-2.2,1.7-3.8,1.7c-1.5,0-2.6-0.5-3.4-1.6l-0.1,1.3h-3.2V14.7h3.5
				v6.7c0.9-1,1.8-1.5,3.2-1.5c1.6,0,2.8,0.6,3.8,1.7c0.9,1.2,1.3,2.8,1.3,5C45.5,26.6,45.5,26.9,45.5,26.9z M42,26.6
				c0-1.3-0.2-2.3-0.6-2.9s-1.1-1-1.8-1c-1.1,0-1.8,0.5-2.3,1.3v5.1c0.5,1,1.2,1.3,2.3,1.3c1.1,0,1.8-0.6,2.2-1.7
				C41.9,28.6,42,27.7,42,26.6z"/>
			<path class="st2" d="M53,33.6c-1.9,0-3.5-0.6-4.7-1.8S46.4,29,46.4,27v-0.4c0-1.3,0.2-2.4,0.7-3.5c0.5-1.1,1.2-1.8,2.2-2.4
				c1-0.6,1.9-0.9,3.2-0.9c1.8,0,3.2,0.6,4.3,1.7c1,1.1,1.6,2.7,1.6,4.7v1.5h-8.3c0.1,0.9,0.5,1.6,1,2.1c0.6,0.5,1.3,0.7,2.2,0.7
				c1.3,0,2.4-0.5,3.2-1.5l1.7,1.9c-0.5,0.7-1.2,1.3-2.1,1.7C55.1,33.3,54.1,33.6,53,33.6z M52.6,22.9c-0.7,0-1.2,0.2-1.7,0.7
				c-0.5,0.5-0.7,1.1-0.9,2.1h4.9v-0.2c0-0.7-0.2-1.3-0.6-1.8C54,23,53.4,22.9,52.6,22.9z"/>
			<path class="st2" d="M66.7,29.7c0-0.5-0.2-0.7-0.6-1s-1.1-0.5-2.1-0.6c-3.2-0.6-4.6-1.9-4.6-4c0-1.2,0.5-2.2,1.5-2.9
				c1-0.7,2.2-1.2,3.8-1.2c1.7,0,3,0.4,4,1.2c1,0.7,1.5,1.8,1.5,3h-3.5c0-0.5-0.1-1-0.5-1.2c-0.4-0.4-0.9-0.5-1.5-0.5
				s-1.1,0.1-1.3,0.4c-0.4,0.2-0.5,0.6-0.5,1s0.2,0.7,0.6,1c0.4,0.2,1,0.5,1.8,0.6s1.6,0.4,2.2,0.6c1.8,0.7,2.8,1.8,2.8,3.5
				c0,1.2-0.5,2.2-1.6,2.9c-1,0.7-2.3,1.1-4,1.1c-1.1,0-2.1-0.2-2.9-0.6s-1.5-1-1.9-1.6c-0.5-0.7-0.7-1.5-0.7-2.2h3.3
				c0,0.6,0.2,1.1,0.7,1.5c0.5,0.4,1,0.5,1.7,0.5c0.6,0,1.2-0.1,1.5-0.4C66.6,30.4,66.7,30.2,66.7,29.7z"/>
			<path class="st2" d="M76,17v3.2h2.2v2.6H76v6.6c0,0.5,0.1,0.9,0.2,1.1c0.2,0.2,0.5,0.4,1.1,0.4c0.4,0,0.7,0,1-0.1v2.7
				c-0.7,0.2-1.3,0.4-2.1,0.4c-2.4,0-3.6-1.2-3.8-3.8v-7.1h-1.9v-2.6h1.9V17H76z"/>
		</g>
		<g>
			<path class="st2" d="M80.6,26.6c0-2.1,0.5-3.6,1.3-4.9c1-1.2,2.2-1.8,3.8-1.8c1.2,0,2.3,0.5,3.2,1.5v-6.7h3.5v18.6h-3.2L89.1,32
				c-0.9,1.1-1.9,1.6-3.4,1.6c-1.6,0-2.8-0.6-3.6-1.8C81.1,30.5,80.6,28.8,80.6,26.6z M84.1,27c0,1.2,0.2,2.2,0.6,2.8
				c0.5,0.6,1.1,1,1.8,1c1.1,0,1.8-0.5,2.3-1.3v-5.1c-0.5-0.9-1.2-1.3-2.3-1.3C85,22.9,84.1,24.2,84.1,27z"/>
			<path class="st2" d="M100.6,33.6c-1.9,0-3.5-0.6-4.7-1.8S94,29,94,27v-0.4c0-1.3,0.2-2.4,0.7-3.5c0.5-1.1,1.2-1.8,2.2-2.4
				c1-0.6,1.9-0.9,3.2-0.9c1.8,0,3.2,0.6,4.3,1.7c1,1.1,1.6,2.7,1.6,4.7v1.5h-8.3c0.1,0.9,0.5,1.6,1,2.1c0.6,0.5,1.3,0.7,2.2,0.7
				c1.3,0,2.4-0.5,3.2-1.5l1.7,1.9c-0.5,0.7-1.2,1.3-2.1,1.7C102.6,33.3,101.5,33.6,100.6,33.6z M100.1,22.9c-0.7,0-1.2,0.2-1.7,0.7
				c-0.5,0.5-0.7,1.1-0.9,2.1h4.9v-0.2c0-0.7-0.2-1.3-0.6-1.8C101.4,23,100.8,22.9,100.1,22.9z"/>
			<path class="st2" d="M112,29.1l2.4-8.8h3.6l-4.4,13.1h-3.3L106,20.3h3.6L112,29.1z"/>
			<path class="st2" d="M124.8,33.6c-1.9,0-3.5-0.6-4.7-1.8s-1.8-2.8-1.8-4.7v-0.4c0-1.3,0.2-2.4,0.7-3.5c0.5-1.1,1.2-1.8,2.2-2.4
				c1-0.6,1.9-0.9,3.2-0.9c1.8,0,3.2,0.6,4.3,1.7c1,1.1,1.6,2.7,1.6,4.7v1.5h-8.3c0.1,0.9,0.5,1.6,1,2.1c0.6,0.5,1.3,0.7,2.2,0.7
				c1.3,0,2.4-0.5,3.2-1.5l1.7,1.9c-0.5,0.7-1.2,1.3-2.1,1.7C126.8,33.3,125.9,33.6,124.8,33.6z M124.4,22.9c-0.7,0-1.2,0.2-1.7,0.7
				c-0.5,0.5-0.7,1.1-0.9,2.1h4.9v-0.2c0-0.7-0.2-1.3-0.6-1.8C125.6,23,125.1,22.9,124.4,22.9z"/>
			<path class="st2" d="M135.1,33.3h-3.5V14.7h3.5V33.3z"/>
			<path class="st2" d="M136.8,26.6c0-1.3,0.2-2.4,0.7-3.5c0.5-1,1.2-1.8,2.2-2.3c1-0.6,2.1-0.9,3.3-0.9c1.8,0,3.2,0.5,4.4,1.6
				c1.1,1.1,1.7,2.6,1.8,4.4v0.9c0,1.9-0.6,3.6-1.7,4.9c-1.1,1.2-2.7,1.8-4.5,1.8c-1.8,0-3.4-0.6-4.5-1.8
				C137.4,30.4,136.8,28.8,136.8,26.6L136.8,26.6z M140.4,26.9c0,1.2,0.2,2.2,0.7,2.8c0.5,0.6,1.1,1,1.9,1s1.5-0.4,1.9-1
				c0.5-0.6,0.7-1.7,0.7-3.2c0-1.2-0.2-2.2-0.7-2.8c-0.5-0.7-1.1-1-1.9-1s-1.5,0.4-1.9,1C140.6,24.5,140.4,25.5,140.4,26.9z"/>
			<path class="st2" d="M162.5,26.9c0,2.1-0.5,3.6-1.3,4.9c-1,1.2-2.2,1.8-3.6,1.8c-1.3,0-2.4-0.5-3.2-1.3v6.2h-3.5V20.2h3.3
				l0.1,1.3c0.9-1,1.9-1.6,3.3-1.6c1.6,0,2.9,0.6,3.8,1.8c0.9,1.2,1.3,2.8,1.3,5v0.1H162.5z M159,26.6c0-1.2-0.2-2.2-0.6-2.8
				c-0.5-0.6-1.1-1-1.8-1c-1.1,0-1.8,0.4-2.3,1.2v5.4c0.5,0.9,1.2,1.3,2.3,1.3C158.1,30.8,159,29.4,159,26.6z"/>
			<path class="st2" d="M170,33.6c-1.9,0-3.5-0.6-4.7-1.8c-1.2-1.2-1.8-2.8-1.8-4.7v-0.4c0-1.3,0.2-2.4,0.7-3.5
				c0.5-1.1,1.2-1.8,2.2-2.4c1-0.6,1.9-0.9,3.2-0.9c1.8,0,3.2,0.6,4.3,1.7c1,1.1,1.6,2.7,1.6,4.7v1.5h-8.3c0.1,0.9,0.5,1.6,1,2.1
				c0.6,0.5,1.3,0.7,2.2,0.7c1.3,0,2.4-0.5,3.2-1.5l1.7,1.9c-0.5,0.7-1.2,1.3-2.1,1.7C172.1,33.3,171,33.6,170,33.6z M169.6,22.9
				c-0.7,0-1.2,0.2-1.7,0.7c-0.5,0.5-0.7,1.1-0.9,2.1h4.9v-0.2c0-0.7-0.2-1.3-0.6-1.8C170.9,23,170.3,22.9,169.6,22.9z"/>
			<path class="st2" d="M184,23.5c-0.5-0.1-0.9-0.1-1.2-0.1c-1.3,0-2.2,0.5-2.6,1.3v8.5h-3.5v-13h3.3l0.1,1.6
				c0.7-1.2,1.7-1.8,2.9-1.8c0.4,0,0.7,0,1.1,0.1L184,23.5z"/>
			<path class="st2" d="M192.7,29.7c0-0.5-0.2-0.7-0.6-1s-1.1-0.5-2.1-0.6c-3.2-0.6-4.6-1.9-4.6-4c0-1.2,0.5-2.2,1.5-2.9
				c1-0.7,2.2-1.2,3.8-1.2c1.7,0,3,0.4,4,1.2c1,0.7,1.5,1.8,1.5,3h-3.5c0-0.5-0.1-1-0.5-1.2c-0.4-0.4-0.9-0.5-1.5-0.5
				c-0.6,0-1.1,0.1-1.3,0.4c-0.4,0.2-0.5,0.6-0.5,1s0.2,0.7,0.6,1c0.4,0.2,1,0.5,1.8,0.6s1.6,0.4,2.2,0.6c1.8,0.7,2.8,1.8,2.8,3.5
				c0,1.2-0.5,2.2-1.6,2.9c-1,0.7-2.3,1.1-4,1.1c-1.1,0-2.1-0.2-2.9-0.6s-1.5-1-1.9-1.6c-0.5-0.7-0.7-1.5-0.7-2.2h3.3
				c0,0.6,0.2,1.1,0.7,1.5c0.5,0.4,1,0.5,1.7,0.5c0.6,0,1.2-0.1,1.5-0.4C192.5,30.4,192.7,30.2,192.7,29.7z"/>
		</g>
		<path class="st2" d="M198.3,26.6c0-1.3,0.2-2.4,0.7-3.5c0.5-1,1.2-1.8,2.2-2.3c1-0.6,2.1-0.9,3.3-0.9c1.8,0,3.2,0.5,4.4,1.6
			c1.1,1.1,1.7,2.6,1.8,4.4v0.9c0,1.9-0.6,3.6-1.7,4.9c-1.1,1.2-2.7,1.8-4.5,1.8c-1.8,0-3.4-0.6-4.5-1.8
			C198.9,30.4,198.3,28.8,198.3,26.6L198.3,26.6L198.3,26.6z M201.8,26.9c0,1.2,0.2,2.2,0.7,2.8c0.5,0.6,1.1,1,1.9,1
			c0.9,0,1.5-0.4,1.9-1c0.5-0.6,0.7-1.7,0.7-3.2c0-1.2-0.2-2.2-0.7-2.8c-0.5-0.7-1.1-1-1.9-1s-1.5,0.4-1.9,1
			C202,24.5,201.8,25.5,201.8,26.9z"/>
		<path class="st2" d="M215.4,20.2l0.1,1.5c1-1.2,2.2-1.7,3.8-1.7c1.3,0,2.4,0.4,3,1.2c0.7,0.9,1,2.1,1.1,3.6v8.4h-3.5v-8.4
			c0-0.7-0.1-1.3-0.5-1.6c-0.4-0.4-0.9-0.5-1.6-0.5c-1,0-1.7,0.4-2.2,1.2v9.2h-3.5v-13H215.4z"/>
		<path class="st2" d="M229,33.3h-3.5V14.7h3.5V33.3z"/>
		<path class="st2" d="M230.6,16.9c0-0.5,0.1-1,0.5-1.3c0.4-0.4,0.9-0.5,1.5-0.5s1.1,0.1,1.5,0.5c0.4,0.4,0.5,0.7,0.5,1.3
			c0,0.5-0.1,1-0.5,1.3c-0.4,0.4-0.9,0.5-1.5,0.5s-1.1-0.1-1.5-0.5C230.9,17.9,230.6,17.4,230.6,16.9z M234.4,33.3h-3.5V20.2h3.5
			V33.3z"/>
		<path class="st2" d="M239.8,20.2l0.1,1.5c1-1.2,2.2-1.7,3.8-1.7c1.3,0,2.4,0.4,3,1.2c0.7,0.9,1,2.1,1.1,3.6v8.4h-3.5v-8.4
			c0-0.7-0.1-1.3-0.5-1.6c-0.4-0.4-0.9-0.5-1.6-0.5c-1,0-1.7,0.4-2.2,1.2v9.2h-3.5v-13H239.8z"/>
		<path class="st2" d="M255.8,33.6c-1.9,0-3.5-0.6-4.7-1.8s-1.8-2.8-1.8-4.7v-0.4c0-1.3,0.2-2.4,0.7-3.5c0.5-1.1,1.2-1.8,2.2-2.4
			c1-0.6,1.9-0.9,3.2-0.9c1.8,0,3.2,0.6,4.3,1.7c1,1.1,1.6,2.7,1.6,4.7v1.5h-8.3c0.1,0.9,0.5,1.6,1,2.1c0.6,0.5,1.3,0.7,2.2,0.7
			c1.3,0,2.4-0.5,3.2-1.5l1.7,1.9c-0.5,0.7-1.2,1.3-2.1,1.7C257.9,33.3,256.9,33.6,255.8,33.6z M255.4,22.9c-0.7,0-1.2,0.2-1.7,0.7
			c-0.5,0.5-0.7,1.1-0.9,2.1h4.9v-0.2c0-0.7-0.2-1.3-0.6-1.8C256.8,23,256.2,22.9,255.4,22.9z"/>
	</g>
</g>
<image style="overflow:visible;" width="267" height="94" xlink:href="3CC3810F.jpg"  transform="matrix(1 0 0 1 39 -145.724)">
</image>
<image style="overflow:visible;" width="194" height="50" xlink:href="3CC38109.jpg"  transform="matrix(1 0 0 1 46 134.276)">
</image>
</svg>
