<svg xmlns="http://www.w3.org/2000/svg" width="960" height="762" viewBox="0 0 960 762">
  <g id="Group_33209" data-name="Group 33209" transform="translate(-960 -1654)">
    <rect id="Rectangle_4807" data-name="Rectangle 4807" width="960" height="762" transform="translate(960 1654)" fill="#091756"/>
    <path id="Path_27615" data-name="Path 27615" d="M29.835-248.625q0-114.036,44.089-179.673t142.214-65.637q98.124,0,142.214,65.637t44.09,179.673q0,115.362-44.09,181T216.138-1.989q-98.124,0-142.214-65.637T29.835-248.625Zm261.222,0q0-66.963-14.586-103.1t-60.333-36.133q-45.747,0-60.333,36.133t-14.586,103.1q0,45.084,5.3,74.588T168.071-126.3q16.243,18.233,48.067,18.233T264.206-126.3q16.243-18.232,21.548-47.736T291.057-248.625Zm159.12-129.948V-483.99H633.828V0H515.814V-378.573Z" transform="translate(1108.166 2281.936)" fill="#fff" opacity="0.14"/>
  </g>
</svg>
