<svg xmlns="http://www.w3.org/2000/svg" xmlns:xlink="http://www.w3.org/1999/xlink" width="79.955" height="174.558" viewBox="0 0 79.955 174.558">
  <defs>
    <linearGradient id="linear-gradient" x1="97.076" y1="1.658" x2="97.99" y2="-0.498" gradientUnits="objectBoundingBox">
      <stop offset="0" stop-color="#5e88e4"/>
      <stop offset="1" stop-color="#648de5" stop-opacity="0"/>
    </linearGradient>
    <linearGradient id="linear-gradient-2" x1="37.974" y1="-0.538" x2="37.323" y2="0.765" gradientUnits="objectBoundingBox">
      <stop offset="0" stop-color="#f0f6ff"/>
      <stop offset="1" stop-color="#f0f6ff" stop-opacity="0"/>
    </linearGradient>
  </defs>
  <g id="Group_33521" data-name="Group 33521" transform="translate(-246.591 -54.317)">
    <g id="Group_33519" data-name="Group 33519">
      <g id="Group_33518" data-name="Group 33518">
        <g id="Group_33515" data-name="Group 33515">
          <g id="Group_33514" data-name="Group 33514" style="mix-blend-mode: normal;isolation: isolate">
            <g id="Group_33490" data-name="Group 33490">
              <path id="Path_39372" data-name="Path 39372" d="M275.826,152.075l20.54-11.936-28-1.473L247.83,150.6Z" fill="#2445bc"/>
            </g>
            <g id="Group_33492" data-name="Group 33492">
              <g id="Group_33491" data-name="Group 33491">
                <path id="Path_39373" data-name="Path 39373" d="M303.652,210.979l20.539-11.936.08-28.119L303.732,182.86Z" fill="#2445bc"/>
              </g>
            </g>
            <g id="Group_33493" data-name="Group 33493">
              <path id="Path_39374" data-name="Path 39374" d="M303.732,182.86l20.539-11.936-27.905-30.785-20.54,11.936Z" fill="#2445bc"/>
            </g>
            <g id="Group_33495" data-name="Group 33495">
              <g id="Group_33494" data-name="Group 33494">
                <path id="Path_39375" data-name="Path 39375" d="M275.826,152.075l-28-1.473-.08,28.1,28,1.473,27.905,30.8.08-28.119Z" fill="#091756"/>
              </g>
            </g>
            <g id="Group_33496" data-name="Group 33496">
              <path id="Path_39376" data-name="Path 39376" d="M275.906,123.955l20.539-11.936-28-1.472-20.54,11.936Z" fill="#4069db"/>
            </g>
            <g id="Group_33498" data-name="Group 33498">
              <g id="Group_33497" data-name="Group 33497">
                <path id="Path_39377" data-name="Path 39377" d="M303.732,182.877l20.539-11.936.08-28.119-20.539,11.936Z" fill="#4069db"/>
              </g>
            </g>
            <g id="Group_33499" data-name="Group 33499">
              <path id="Path_39378" data-name="Path 39378" d="M303.811,154.757l20.539-11.936-27.905-30.8-20.539,11.936Z" fill="#4069db"/>
            </g>
            <g id="Group_33501" data-name="Group 33501">
              <g id="Group_33500" data-name="Group 33500">
                <path id="Path_39379" data-name="Path 39379" d="M275.906,123.955l-28-1.473-.08,28.119,28,1.473,27.905,30.8.08-28.119Z" fill="#5481e2"/>
              </g>
            </g>
            <g id="Group_33502" data-name="Group 33502">
              <path id="Path_39380" data-name="Path 39380" d="M275.986,95.853l20.539-11.936-28-1.473L247.99,94.381Z" fill="#8daaf1"/>
            </g>
            <g id="Group_33504" data-name="Group 33504">
              <g id="Group_33503" data-name="Group 33503">
                <path id="Path_39381" data-name="Path 39381" d="M275.986,95.853l-28-1.473-.08,28.094,28,1.473,27.905,30.8.08-28.119Z" fill="#a2bdf4"/>
              </g>
            </g>
            <g id="Group_33506" data-name="Group 33506">
              <g id="Group_33505" data-name="Group 33505">
                <path id="Path_39382" data-name="Path 39382" d="M303.811,154.749l20.539-11.936.08-28.119L303.891,126.63Z" fill="#8daaf1"/>
              </g>
            </g>
            <g id="Group_33507" data-name="Group 33507">
              <path id="Path_39383" data-name="Path 39383" d="M303.891,126.63l20.539-11.936L296.525,83.917,275.986,95.853Z" fill="#8daaf1"/>
            </g>
            <g id="Group_33508" data-name="Group 33508">
              <path id="Path_39384" data-name="Path 39384" d="M276.065,67.725,296.6,55.789l-28-1.472-20.54,11.936Z" fill="#e4ecf9"/>
            </g>
            <g id="Group_33510" data-name="Group 33510">
              <g id="Group_33509" data-name="Group 33509">
                <path id="Path_39385" data-name="Path 39385" d="M303.891,126.655l20.539-11.936.08-28.128-20.54,11.936Z" fill="#cdddf7"/>
              </g>
            </g>
            <g id="Group_33511" data-name="Group 33511">
              <path id="Path_39386" data-name="Path 39386" d="M303.971,98.527l20.54-11.936L296.6,55.789,276.065,67.725Z" fill="#d9e4f4"/>
            </g>
            <g id="Group_33513" data-name="Group 33513">
              <g id="Group_33512" data-name="Group 33512">
                <path id="Path_39387" data-name="Path 39387" d="M276.065,67.725l-28-1.473-.08,28.128,28,1.473,27.905,30.8.08-28.128Z" fill="#f0f6ff"/>
              </g>
            </g>
          </g>
        </g>
        <g id="Group_33517" data-name="Group 33517" opacity="0.67" style="mix-blend-mode: multiply;isolation: isolate">
          <g id="Group_33516" data-name="Group 33516">
            <path id="Path_39388" data-name="Path 39388" d="M303.652,210.979l20.539-11.936.08-112.452L303.732,98.527Z" fill="url(#linear-gradient)"/>
          </g>
        </g>
      </g>
      <path id="Path_39389" data-name="Path 39389" d="M247.83,150.6l.08-28.119h.021l.059-28.1.08-28.128,28,1.473,27.905,30.8-.08,28.128-.08,37.911-.028-.031-.052,18.324-.08,28.119-25.892-39.2-30.009,6.93Z" opacity="0.6" fill="url(#linear-gradient-2)" style="mix-blend-mode: screen;isolation: isolate"/>
    </g>
    <g id="Group_33520" data-name="Group 33520" opacity="0.54" style="mix-blend-mode: multiply;isolation: isolate">
      <path id="Path_39390" data-name="Path 39390" d="M247.365,182.864c-4.3,2.485,9.77,14.7,31.417,27.279s42.688,20.772,46.991,18.287-9.764-14.7-31.416-27.279S251.663,180.383,247.365,182.864Z" fill="#ef861d"/>
    </g>
  </g>
</svg>
