<svg xmlns="http://www.w3.org/2000/svg" xmlns:xlink="http://www.w3.org/1999/xlink" width="125.827" height="170.085" viewBox="0 0 125.827 170.085">
  <defs>
    <linearGradient id="linear-gradient" x1="-0.16" y1="-0.715" x2="0.521" y2="0.538" gradientUnits="objectBoundingBox">
      <stop offset="0" stop-color="#f0f6ff"/>
      <stop offset="1" stop-color="#f0f6ff" stop-opacity="0"/>
    </linearGradient>
  </defs>
  <g id="Group_33565" data-name="Group 33565" transform="translate(6907.671 -1435.843)">
    <g id="Group_33562" data-name="Group 33562" transform="translate(-7466.893 1166.684)">
      <g id="Group_33557" data-name="Group 33557" opacity="0.54" style="mix-blend-mode: multiply;isolation: isolate">
        <path id="Path_39413" data-name="Path 39413" d="M664.057,383.412c22.124,12.773,22.241,33.488.276,46.252-21.981,12.774-57.742,12.774-79.867,0-22.108-12.765-22.225-33.479-.244-46.253C606.187,370.647,641.948,370.647,664.057,383.412Z" fill="#ef861d"/>
      </g>
      <g id="Group_33561" data-name="Group 33561">
        <g id="Group_33560" data-name="Group 33560">
          <g id="Group_33559" data-name="Group 33559" style="mix-blend-mode: normal;isolation: isolate">
            <path id="Path_39414" data-name="Path 39414" d="M632.613,369.792c-16.013-9.245-28.951-31.654-28.9-50.054.026-9.137,3.254-15.569,8.459-18.594l-21.144,12.287c-5.205,3.025-8.433,9.457-8.459,18.6-.052,18.4,12.886,40.809,28.9,50.054,8.058,4.652,15.358,5.084,20.63,2.02l21.144-12.287C647.971,374.877,640.67,374.444,632.613,369.792Z" fill="#8daaf1"/>
            <path id="Path_39415" data-name="Path 39415" d="M632.878,276.341c-14.549-8.4-27.73-9.18-37.247-3.649l-21.143,12.287c9.517-5.531,22.7-4.751,37.246,3.649,28.909,16.691,52.265,57.144,52.17,90.356-.046,16.505-5.873,28.118-15.27,33.579l21.144-12.287c9.4-5.461,15.224-17.074,15.27-33.579C685.143,333.485,661.787,293.031,632.878,276.341Z" fill="#091756"/>
            <g id="Group_33558" data-name="Group 33558">
              <path id="Path_39416" data-name="Path 39416" d="M611.734,288.628c28.909,16.691,52.265,57.144,52.171,90.356s-23.6,46.624-52.512,29.933-52.265-57.152-52.171-90.371S582.824,271.937,611.734,288.628Zm-.265,93.452c16.012,9.245,29.035,1.824,29.087-16.576s-12.886-40.809-28.9-50.054-29.035-1.817-29.088,16.576,12.886,40.809,28.9,50.054" fill="#cdddf7"/>
              <path id="Path_39417" data-name="Path 39417" d="M611.564,293.2c-.61-.38-1.22-.75-1.83-1.1-7.53-4.35-14.96-6.65-21.49-6.65-15.38,0-24.96,12.69-25.02,33.11-.06,21.55,10.19,46.33,25.41,65.08,7.31,9.01,15.76,16.62,24.76,21.82,7.53,4.34,14.95,6.64,21.48,6.64,15.38,0,24.97-12.69,25.03-33.12C659.994,347.806,638.464,309.836,611.564,293.2Zm12.91,96.86c-4.77,0-9.82-1.52-15.01-4.51a56.042,56.042,0,0,1-14.22-12.09c-10.03-11.62-16.71-27.4-16.67-41.44.04-14.91,7.92-24.54,20.08-24.54a28.673,28.673,0,0,1,12.91,3.39c.7.34,1.39.72,2.09,1.12,17.39,10.04,30.96,33.55,30.9,53.53C644.514,380.426,636.634,390.056,624.474,390.056Z" fill="#4069db"/>
            </g>
          </g>
        </g>
        <path id="Path_39418" data-name="Path 39418" d="M659.9,378.976c-.06,20.43-9.65,33.12-25.03,33.12-6.53,0-13.95-2.3-21.48-6.64-9-5.2-17.45-12.81-24.76-21.82,2.22-3.44,4.45-6.87,6.61-10.18a56.042,56.042,0,0,0,14.22,12.09c5.19,2.99,10.24,4.51,15.01,4.51,12.16,0,20.04-9.63,20.08-24.54.06-19.98-13.51-43.49-30.9-53.53-.7-.4-1.39-.78-2.09-1.12V293.2C638.464,309.836,659.994,347.806,659.9,378.976Z" fill="#6298f9"/>
        <path id="Path_39419" data-name="Path 39419" d="M611.734,288.628c28.909,16.691,52.265,57.144,52.171,90.356s-23.6,46.624-52.512,29.933-52.265-57.152-52.171-90.371S582.824,271.937,611.734,288.628Zm-.265,93.452c16.012,9.245,29.035,1.824,29.087-16.576s-12.886-40.809-28.9-50.054-29.035-1.817-29.088,16.576,12.886,40.809,28.9,50.054" fill="url(#linear-gradient)"/>
      </g>
    </g>
  </g>
</svg>
