<svg xmlns="http://www.w3.org/2000/svg" width="47.252" height="47.252" viewBox="0 0 47.252 47.252">
  <path id="Vector_1_" data-name="Vector (1)" d="M39.377,14.828a13.686,13.686,0,0,1-3.722,1.046,6.28,6.28,0,0,0,2.861-3.6,12.847,12.847,0,0,1-4.122,1.569,6.14,6.14,0,0,0-4.707-2.03,6.459,6.459,0,0,0-6.46,6.46,5.929,5.929,0,0,0,.154,1.477,18.289,18.289,0,0,1-7.445-2,18.313,18.313,0,0,1-5.907-4.768,6.4,6.4,0,0,0-.892,3.261,6.093,6.093,0,0,0,2.8,5.384,7.62,7.62,0,0,1-3.076-.8v.062A6.144,6.144,0,0,0,10.4,25a6.461,6.461,0,0,0,3.784,2.23,6,6,0,0,1-1.569.246,8.663,8.663,0,0,1-1.2-.123,6.567,6.567,0,0,0,2.292,3.2,6.14,6.14,0,0,0,3.738,1.292,12.765,12.765,0,0,1-8.029,2.769,12.4,12.4,0,0,1-1.538-.092,18.122,18.122,0,0,0,9.906,2.892,18.822,18.822,0,0,0,6.46-1.092,16.64,16.64,0,0,0,5.168-2.923,19.4,19.4,0,0,0,3.707-4.215,18.616,18.616,0,0,0,3.061-10.167,8.169,8.169,0,0,0-.031-.831A12.556,12.556,0,0,0,39.377,14.828ZM47.252,8.86V38.392a8.875,8.875,0,0,1-8.86,8.86H8.86a8.534,8.534,0,0,1-6.26-2.6A8.533,8.533,0,0,1,0,38.392V8.86A8.533,8.533,0,0,1,2.6,2.6,8.533,8.533,0,0,1,8.86,0H38.392a8.533,8.533,0,0,1,6.26,2.6A8.534,8.534,0,0,1,47.252,8.86Z" fill="#8f8f8f"/>
</svg>
