<svg xmlns="http://www.w3.org/2000/svg" width="960" height="762" viewBox="0 0 960 762">
  <g id="Group_33210" data-name="Group 33210" transform="translate(0 -2416)">
    <rect id="Rectangle_4808" data-name="Rectangle 4808" width="960" height="762" transform="translate(0 2416)" fill="#ef861d"/>
    <path id="Path_27616" data-name="Path 27616" d="M29.835-248.625q0-114.036,44.089-179.673t142.214-65.637q98.124,0,142.214,65.637t44.09,179.673q0,115.362-44.09,181T216.138-1.989q-98.124,0-142.214-65.637T29.835-248.625Zm261.222,0q0-66.963-14.586-103.1t-60.333-36.133q-45.747,0-60.333,36.133t-14.586,103.1q0,45.084,5.3,74.588T168.071-126.3q16.243,18.233,48.067,18.233T264.206-126.3q16.243-18.232,21.548-47.736T291.057-248.625ZM458.133-90.831q22.542-17.9,20.553-16.575,64.974-53.7,102.434-88.179t63.317-72.267q25.857-37.791,25.857-73.593,0-27.183-12.6-42.432t-37.791-15.249q-25.194,0-39.448,18.9T566.2-326.859h-109.4q1.326-56.355,24.2-94.146T541.339-476.7q37.46-17.9,83.207-17.9,78.9,0,119.009,40.443t40.111,105.417q0,70.941-48.4,131.605T611.949-98.787h179.01V-6.63H458.133Z" transform="translate(69.164 3045.598)" fill="#fff" opacity="0.14"/>
  </g>
</svg>
