<svg xmlns="http://www.w3.org/2000/svg" width="47.25" height="47.25" viewBox="0 0 47.25 47.25">
  <path id="Icon_awesome-facebook-square" data-name="Icon awesome-facebook-square" d="M42.188,2.25H5.063A5.063,5.063,0,0,0,0,7.313V44.438A5.063,5.063,0,0,0,5.063,49.5H19.538V33.436H12.894V25.875h6.645V20.112c0-6.555,3.9-10.176,9.879-10.176a40.254,40.254,0,0,1,5.856.51v6.434h-3.3c-3.249,0-4.263,2.017-4.263,4.085v4.91h7.254l-1.16,7.561H27.712V49.5H42.188a5.063,5.063,0,0,0,5.062-5.062V7.313A5.063,5.063,0,0,0,42.187,2.25Z" transform="translate(0 -2.25)" fill="#8f8f8f"/>
</svg>
