<svg xmlns="http://www.w3.org/2000/svg" width="47.252" height="47.251" viewBox="0 0 47.252 47.251">
  <path id="Vector" d="M23.99,16.017A7.879,7.879,0,1,0,31.869,23.9,7.9,7.9,0,0,0,23.99,16.017ZM47.62,23.9c0-3.263.03-6.5-.154-9.752C47.283,10.361,46.42,7,43.654,4.238S37.531.609,33.748.426C30.486.242,27.253.272,24,.272s-6.5-.03-9.752.154C10.461.609,7.1,1.472,4.338,4.238S.709,10.361.526,14.144C.342,17.406.372,20.639.372,23.9s-.03,6.5.154,9.752c.183,3.783,1.046,7.14,3.812,9.906s6.123,3.629,9.906,3.812c3.263.183,6.5.154,9.752.154s6.5.03,9.752-.154c3.783-.183,7.14-1.046,9.906-3.812s3.629-6.123,3.812-9.906c.189-3.257.154-6.49.154-9.752ZM23.99,36.018A12.122,12.122,0,1,1,36.112,23.9,12.105,12.105,0,0,1,23.99,36.018Zm12.619-21.91a2.827,2.827,0,1,1,1.084-.215,2.828,2.828,0,0,1-1.084.215Z" transform="translate(-0.37 -0.27)" fill="#8f8f8f"/>
</svg>
