<svg xmlns="http://www.w3.org/2000/svg" width="26.783" height="26.783" viewBox="0 0 26.783 26.783">
  <path id="Vector" d="M13.758,9.2a4.466,4.466,0,1,0,4.466,4.466A4.475,4.475,0,0,0,13.758,9.2Zm13.394,4.466c0-1.849.017-3.682-.087-5.528A7.964,7.964,0,0,0,24.9,2.519,7.955,7.955,0,0,0,19.289.358C17.44.255,15.608.271,13.762.271S10.08.255,8.234.358A7.964,7.964,0,0,0,2.619,2.519,7.955,7.955,0,0,0,.458,8.134c-.1,1.849-.087,3.682-.087,5.528s-.017,3.682.087,5.528A7.964,7.964,0,0,0,2.619,24.8a7.955,7.955,0,0,0,5.615,2.161c1.849.1,3.682.087,5.528.087s3.682.017,5.528-.087A7.964,7.964,0,0,0,24.9,24.8a7.955,7.955,0,0,0,2.161-5.615c.107-1.846.087-3.678.087-5.528ZM13.758,20.533a6.871,6.871,0,1,1,6.871-6.871A6.861,6.861,0,0,1,13.758,20.533ZM20.911,8.114a1.6,1.6,0,1,1,.614-.122,1.6,1.6,0,0,1-.614.122Z" transform="translate(-0.37 -0.27)" fill="#091756"/>
</svg>
