<svg xmlns="http://www.w3.org/2000/svg" width="47.252" height="47.252" viewBox="0 0 47.252 47.252">
  <path id="Icon_awesome-linkedin" data-name="Icon awesome-linkedin" d="M43.877,2.25H3.365A3.39,3.39,0,0,0,0,5.657V46.1A3.39,3.39,0,0,0,3.365,49.5H43.877A3.4,3.4,0,0,0,47.252,46.1V5.657A3.4,3.4,0,0,0,43.877,2.25Zm-29.6,40.5h-7V20.2h7.014v22.55Zm-3.5-25.63a4.061,4.061,0,1,1,4.061-4.061,4.062,4.062,0,0,1-4.061,4.061Zm29.754,25.63h-7V31.782c0-2.616-.053-5.98-3.639-5.98-3.649,0-4.208,2.848-4.208,5.79V42.752h-7V20.2H25.4v3.08h.095a7.377,7.377,0,0,1,6.634-3.639c7.088,0,8.406,4.672,8.406,10.748Z" transform="translate(0 -2.25)" fill="#8f8f8f"/>
</svg>
