<svg xmlns="http://www.w3.org/2000/svg" width="30.25" height="30.25" viewBox="0 0 30.25 30.25">
  <g id="Icon_ionic-ios-arrow-dropdown" data-name="Icon ionic-ios-arrow-dropdown" transform="translate(0.5 29.75) rotate(-90)">
    <path id="Path_31068" data-name="Path 31068" d="M.4,9.023A1.362,1.362,0,0,1,.4,7.1L7.124.4A1.356,1.356,0,0,1,8.995.354l6.63,6.609a1.355,1.355,0,1,1-1.912,1.92l-5.7-5.611L2.315,9.03A1.356,1.356,0,0,1,.4,9.023Z" transform="translate(6.608 8.787)" fill="#ef861d" stroke="#ecf5ff" stroke-width="1"/>
    <path id="Path_31069" data-name="Path 31069" d="M0,14.625A14.625,14.625,0,1,1,14.625,29.25,14.623,14.623,0,0,1,0,14.625Zm23.372,8.747A12.37,12.37,0,1,0,5.878,5.878,12.37,12.37,0,1,0,23.372,23.372Z" transform="translate(0 0)" fill="#ef861d" stroke="#ecf5ff" stroke-width="1"/>
  </g>
</svg>
