<svg xmlns="http://www.w3.org/2000/svg" width="45" height="48" viewBox="0 0 45 48" fill="none">
<path d="M5.32422 39.5L22.526 45.871" stroke="#CFD6E6" stroke-width="0.716412" stroke-linecap="round" stroke-dasharray="1.43 1.43"/>
<path d="M5.32422 36.9512H39.7277" stroke="#CFD6E6" stroke-width="0.716412" stroke-linecap="round" stroke-dasharray="1.43 1.43"/>
<path d="M39.7266 39.5L22.5248 45.871" stroke="#CFD6E6" stroke-width="0.716412" stroke-linecap="round" stroke-dasharray="1.43 1.43"/>
<path d="M42.5306 17.6813C42.5306 19.3702 41.1612 20.7396 39.4723 20.7396C37.7835 20.7396 36.4141 19.3702 36.4141 17.6813C36.4141 15.9925 37.7835 14.623 39.4723 14.623C41.1612 14.623 42.5306 15.9925 42.5306 17.6813Z" fill="#CFD6E6"/>
<path d="M41.0976 39.6992C41.8889 39.6992 42.5304 39.0577 42.5304 38.2664V32.4294C42.5304 31.8867 42.837 31.3905 43.3224 31.1478L43.7772 30.9204C44.2626 30.6777 44.5692 30.1816 44.5692 29.6389V25.4273C44.5692 24.346 44.1396 23.3088 43.375 22.5438C42.61 21.7792 41.5728 21.3496 40.4915 21.3496H38.4527C37.3714 21.3496 36.3342 21.7792 35.5692 22.5438C34.8046 23.3088 34.375 24.346 34.375 25.4273V29.6389C34.375 30.1816 34.6816 30.6777 35.167 30.9204L35.6218 31.1478C36.1072 31.3905 36.4138 31.8867 36.4138 32.4294V38.2664C36.4138 39.0577 37.0553 39.6992 37.8467 39.6992H41.0976Z" fill="#CFD6E6"/>
<path d="M26.6638 18.8768C26.6638 21.1105 24.8527 22.9216 22.619 22.9216C20.3854 22.9216 18.5742 21.1105 18.5742 18.8768C18.5742 16.6432 20.3854 14.832 22.619 14.832C24.8527 14.832 26.6638 16.6432 26.6638 18.8768Z" fill="#E38601"/>
<path d="M25.2322 48.0013C26.0236 48.0013 26.6651 47.3598 26.6651 46.5684V38.1006C26.6651 37.5579 26.9717 37.0618 27.4571 36.8191L28.5696 36.2629C29.055 36.0202 29.3616 35.524 29.3616 34.9813V29.1255C29.3616 27.6954 28.7934 26.3236 27.7822 25.3118C26.7704 24.3006 25.3986 23.7324 23.9685 23.7324H21.272C19.8419 23.7324 18.47 24.3006 17.4583 25.3118C16.4471 26.3236 15.8789 27.6954 15.8789 29.1255V34.9813C15.8789 35.524 16.1855 36.0202 16.671 36.2629L17.7834 36.8191C18.2688 37.0618 18.5754 37.5579 18.5754 38.1006V46.5684C18.5754 47.3598 19.2169 48.0013 20.0083 48.0013H25.2322Z" fill="#E38601"/>
<path d="M8.1556 17.6813C8.1556 19.3702 6.78619 20.7396 5.09733 20.7396C3.40847 20.7396 2.03906 19.3702 2.03906 17.6813C2.03906 15.9925 3.40847 14.623 5.09733 14.623C6.78619 14.623 8.1556 15.9925 8.1556 17.6813Z" fill="#CFD6E6"/>
<path d="M2.03885 38.2664C2.03885 39.0577 2.68034 39.6992 3.47167 39.6992H6.72256C7.51388 39.6992 8.15538 39.0577 8.15538 38.2664V32.4294C8.15538 31.8867 8.46201 31.3905 8.94743 31.1478L9.40218 30.9204C9.8876 30.6777 10.1942 30.1816 10.1942 29.6389V25.4273C10.1942 24.346 9.76462 23.3088 9.00005 22.5438C8.23503 21.7792 7.19782 21.3496 6.11654 21.3496H4.07769C2.99638 21.3496 1.95916 21.7792 1.19418 22.5438C0.429614 23.3088 0 24.346 0 25.4273V29.6389C0 30.1816 0.306628 30.6777 0.792046 30.9204L1.2468 31.1478C1.73222 31.3905 2.03885 31.8867 2.03885 32.4294V38.2664Z" fill="#CFD6E6"/>
<path d="M25.4592 2.55402C24.9869 2.48182 24.5817 2.17896 24.3787 1.74644L23.9173 0.763441C23.4016 -0.33527 21.8389 -0.33527 21.3232 0.763441L20.8618 1.74644C20.6588 2.17896 20.2536 2.48182 19.7813 2.55402L18.6352 2.72921C17.4824 2.90544 17.0118 4.31157 17.8263 5.14625L18.7445 6.0873C19.0621 6.41281 19.2064 6.86979 19.1331 7.31865L18.9289 8.57071C18.7363 9.75114 19.9894 10.634 21.0361 10.0554L21.9271 9.56297C22.3584 9.32456 22.882 9.32456 23.3134 9.56296L24.2043 10.0554C25.2511 10.634 26.5041 9.75114 26.3116 8.57071L26.1073 7.31865C26.0341 6.86979 26.1783 6.41281 26.496 6.0873L27.4142 5.14624C28.2287 4.31156 27.758 2.90543 26.6052 2.72921L25.4592 2.55402Z" fill="#101857"/>
</svg>