<svg xmlns="http://www.w3.org/2000/svg" width="39" height="48" viewBox="0 0 39 48" fill="none">
<path d="M15.0554 35.3593C15.0644 33.4189 14.3953 31.7816 13.0102 30.4234C11.9708 29.4046 10.9547 28.3625 9.91935 27.3397C8.96504 26.397 7.43797 26.6814 6.92969 27.8869C6.63726 28.5806 6.79131 29.3387 7.3502 29.9052C7.88445 30.4471 8.42587 30.9827 8.96415 31.521C9.78779 32.3446 10.6114 33.168 11.4247 33.9809C11.708 34.2641 11.7105 34.7209 11.4272 35.0041V35.0041C11.1508 35.2805 10.7091 35.2841 10.4319 35.0085C9.99486 34.574 9.42325 34.0051 9.3886 33.9705C7.26681 31.8492 6.54591 31.1224 4.4201 29.0051C3.37712 27.9662 2.86615 26.7203 2.86749 25.2488C2.87287 20.1812 2.87018 22.1818 2.86929 17.1138C2.86929 16.4371 2.52491 15.9096 1.94812 15.6901C1.00097 15.3301 0.0072541 16.0215 0.00591064 17.0524C0.00188024 20.0376 0.0041176 20.9707 0.0041176 23.9559C0.0041176 27.307 0.0153147 25.6424 8.87281e-05 28.9935C-0.00886772 30.9254 0.660179 32.555 2.03544 33.9106C3.38563 35.2415 4.71611 36.5917 6.06002 37.9289C6.80788 38.6732 7.1751 39.5661 7.17151 40.6207C7.16569 42.2553 7.16972 43.8898 7.16972 45.5244V45.7752H7.15181C7.15002 45.8029 7.14644 45.8307 7.14241 45.8585V45.8585C7.14241 46.6098 7.75152 47.219 8.50289 47.219H13.2525C14.244 47.219 15.0478 46.4152 15.0478 45.4236V45.4236C15.0299 45.3188 15.0326 45.206 15.0514 45.0931C15.0501 41.8487 15.0406 38.6037 15.0554 35.3593Z" fill="#E7ECF8"/>
<path d="M23.9446 35.3593C23.9356 33.4189 24.6047 31.7816 25.9898 30.4234C27.0292 29.4046 28.0453 28.3625 29.0806 27.3397C30.035 26.397 31.562 26.6814 32.0703 27.8869C32.3627 28.5806 32.2087 29.3387 31.6498 29.9052C31.1156 30.4471 30.5741 30.9827 30.0359 31.521C29.2122 32.3446 28.3886 33.168 27.5753 33.9809C27.292 34.2641 27.2896 34.7209 27.5728 35.0041V35.0041C27.8492 35.2805 28.2859 35.2796 28.5569 34.9979C29.1354 34.3964 30.0285 33.4666 30.0665 33.4286C32.1883 31.3073 32.4541 31.1224 34.5799 29.0051C35.6229 27.9662 36.1339 26.7203 36.1325 25.2488C36.1271 20.1812 36.1298 22.1818 36.1307 17.1138C36.1307 16.4371 36.4751 15.9096 37.0519 15.6901C37.999 15.3301 38.9927 16.0215 38.9941 17.0524C38.9981 20.0376 38.9959 20.9707 38.9959 23.9559C38.9959 27.307 38.9847 25.6424 38.9999 28.9935C39.0089 30.9254 38.3398 32.555 36.9646 33.9106C35.6144 35.2415 34.2839 36.5917 32.94 37.9289C32.1921 38.6732 31.8249 39.5661 31.8285 40.6207C31.8343 42.2553 31.8303 43.8898 31.8303 45.5244V45.7752H31.8482C31.85 45.8029 31.8536 45.8307 31.8576 45.8585V45.8585C31.8576 46.6098 31.2485 47.219 30.4971 47.219H25.7475C24.756 47.219 23.9522 46.4152 23.9522 45.4236V45.4236C23.9701 45.3188 23.9674 45.206 23.9486 45.0931C23.9499 41.8487 23.9594 38.6037 23.9446 35.3593Z" fill="#E7ECF8"/>
<path d="M7.30859 12.1802C7.30669 5.4717 12.7708 0.00381203 19.4807 1.99253e-06C26.235 -0.00380805 31.6962 5.45693 31.6929 12.2121C31.6895 18.9197 26.2183 24.3871 19.5112 24.3843C12.776 24.3819 7.3105 18.9159 7.30859 12.1802ZM18.7382 1.55021C16.3741 1.74738 14.3191 2.5975 12.5126 4.13818C12.9998 4.62349 13.4647 5.08593 13.9109 5.53028C13.5471 5.89318 13.1951 6.24418 12.8146 6.62376C12.3679 6.17274 11.9059 5.70649 11.4282 5.22404C9.90657 7.01571 9.04978 9.06837 8.86119 11.4373C9.63605 11.4373 10.37 11.4373 11.1005 11.4373C11.1005 11.9564 11.1005 12.4507 11.1005 12.9675C10.3481 12.9675 9.61414 12.9675 8.85928 12.9675C9.0574 15.3235 9.90752 17.3762 11.4392 19.1712C11.9178 18.6849 12.3783 18.2172 12.8293 17.7591C13.2056 18.1353 13.5571 18.4873 13.9504 18.8807C13.4928 19.3369 13.0251 19.8041 12.5488 20.2789C14.3315 21.7872 16.3813 22.6407 18.7411 22.8312C18.7411 22.062 18.7411 21.3277 18.7411 20.5895C19.2593 20.5895 19.7536 20.5895 20.2708 20.5895C20.2708 21.34 20.2708 22.0744 20.2708 22.8317C22.6292 22.6378 24.681 21.7849 26.466 20.2661C25.9849 19.7889 25.5187 19.3269 25.0791 18.8911C25.4639 18.5073 25.8187 18.1529 26.2135 17.7591C26.6555 18.2034 27.1179 18.6682 27.589 19.1421C29.0939 17.3652 29.9498 15.3149 30.1398 12.9541C29.3744 12.9541 28.6401 12.9541 27.8971 12.9541C27.8971 12.436 27.8971 11.9416 27.8971 11.4244C28.6458 11.4244 29.3802 11.4244 30.1126 11.4244C30.2122 9.72751 28.6843 6.06844 27.5075 5.2188C27.0517 5.67887 26.5907 6.14417 26.1583 6.57994C25.8001 6.22989 25.4453 5.88318 25.0558 5.50265C25.5158 5.04497 25.9811 4.58205 26.4583 4.1077C24.6776 2.5975 22.6273 1.74024 20.2589 1.55021C20.2589 2.31698 20.2589 3.05708 20.2589 3.79718C19.7388 3.79718 19.2502 3.79718 18.7378 3.79718C18.7382 3.0528 18.7382 2.31889 18.7382 1.55021Z" fill="#0755E9" style="&#10;    fill: #101857;&#10;"/>
<path d="M18.704 1.08594C18.704 1.88785 18.704 2.65445 18.704 3.433C19.2385 3.433 19.7491 3.433 20.292 3.433C20.292 2.66042 20.292 1.88785 20.292 1.08743C22.7641 1.28579 24.905 2.18067 26.7641 3.75714C26.2659 4.2523 25.7801 4.73554 25.2998 5.2133C25.7065 5.61053 26.0769 5.97245 26.4508 6.33786C26.9018 5.88247 27.3831 5.39725 27.8594 4.917C29.088 5.80342 30.683 9.62305 30.5791 11.3949C29.8144 11.3949 29.0472 11.3949 28.2661 11.3949C28.2661 11.9348 28.2661 12.4509 28.2661 12.9918C29.0422 12.9918 29.8084 12.9918 30.6074 12.9918C30.409 15.4561 29.516 17.5964 27.9444 19.4513C27.4527 18.9566 26.9699 18.4714 26.5085 18.0075C26.0968 18.4182 25.7259 18.7886 25.3242 19.1893C25.7826 19.6442 26.2693 20.1264 26.772 20.6245C24.9085 22.21 22.7661 23.1004 20.3045 23.3027C20.3045 22.5122 20.3045 21.7456 20.3045 20.9621C19.7645 20.9621 19.2484 20.9621 18.7075 20.9621C18.7075 21.7327 18.7075 22.4988 18.7075 23.3022C16.2439 23.1033 14.1034 22.212 12.2429 20.638C12.7401 20.1423 13.2289 19.6546 13.7062 19.1783C13.2955 18.7677 12.928 18.4003 12.5358 18.0075C12.0649 18.4858 11.5841 18.974 11.0844 19.4816C9.48496 17.6063 8.59746 15.4636 8.39062 13.0042C9.17819 13.0042 9.94486 13.0042 10.7304 13.0042C10.7304 12.4648 10.7304 11.9482 10.7304 11.4068C9.96774 11.4068 9.20155 11.4068 8.39261 11.4068C8.5895 8.93449 9.48347 6.79176 11.0725 4.92097C11.5712 5.42459 12.0535 5.9118 12.5198 6.38211C12.9171 5.98588 13.285 5.61898 13.6644 5.24064C13.1985 4.7768 12.7138 4.29406 12.2046 3.78747C14.0905 2.17918 16.2359 1.29176 18.704 1.08594ZM20.2955 18.5489C20.2955 18.4227 20.2955 18.3237 20.2955 18.2248C20.2955 16.4599 20.2975 14.695 20.2915 12.9301C20.291 12.7685 20.3323 12.6875 20.4884 12.6169C23.0366 11.4665 25.5812 10.3081 28.1264 9.15075C28.2736 9.08364 28.4182 9.01155 28.5768 8.93548C28.3536 8.44479 28.1418 7.98045 27.9265 7.50716C27.8629 7.53053 27.8161 7.54395 27.7724 7.56384C24.8046 8.91112 21.8383 10.2609 18.8681 11.6022C18.7085 11.6743 18.7025 11.7747 18.7025 11.9134C18.705 14.0512 18.704 16.1889 18.705 18.3267C18.705 18.3983 18.7134 18.4699 18.7184 18.5484C19.2454 18.5489 19.7561 18.5489 20.2955 18.5489Z" fill="#0755E9" style="&#10;    fill: #E38601;&#10;"/>
</svg>