<svg xmlns="http://www.w3.org/2000/svg" width="26.783" height="26.783" viewBox="0 0 26.783 26.783">
  <path id="Vector_1_" data-name="Vector (1)" d="M22.319,8.4A7.757,7.757,0,0,1,20.21,9a3.56,3.56,0,0,0,1.622-2.04,7.282,7.282,0,0,1-2.337.889A3.48,3.48,0,0,0,16.827,6.7a3.661,3.661,0,0,0-3.662,3.662,3.361,3.361,0,0,0,.087.837,10.367,10.367,0,0,1-4.22-1.133,10.38,10.38,0,0,1-3.348-2.7,3.627,3.627,0,0,0-.506,1.848,3.454,3.454,0,0,0,1.587,3.051A4.319,4.319,0,0,1,5.022,11.8v.035a3.482,3.482,0,0,0,.872,2.328,3.662,3.662,0,0,0,2.145,1.264,3.4,3.4,0,0,1-.889.139,4.91,4.91,0,0,1-.68-.07,3.722,3.722,0,0,0,1.3,1.813,3.48,3.48,0,0,0,2.119.732,7.235,7.235,0,0,1-4.551,1.569,7.028,7.028,0,0,1-.872-.052A10.272,10.272,0,0,0,10.079,21.2a10.668,10.668,0,0,0,3.662-.619,9.432,9.432,0,0,0,2.929-1.657,11,11,0,0,0,2.1-2.389,10.552,10.552,0,0,0,1.735-5.763,4.63,4.63,0,0,0-.017-.471A7.117,7.117,0,0,0,22.319,8.4Zm4.464-3.383v16.74a5.031,5.031,0,0,1-5.022,5.022H5.022A4.837,4.837,0,0,1,1.473,25.31,4.837,4.837,0,0,1,0,21.761V5.022A4.837,4.837,0,0,1,1.473,1.473,4.837,4.837,0,0,1,5.022,0h16.74A4.837,4.837,0,0,1,25.31,1.473,4.837,4.837,0,0,1,26.783,5.022Z" fill="#091756"/>
</svg>
